{"title":"Leonera.2008.DVDRIP.XviD-ZEKTORM","uid":4708141,"size":744551809,"categoryP":"video","categoryS":"movies","magnet":"?xt=urn:btih:406ad36ba6a6b495b896dc357a78019091949ae0&amp;dn=Leonera.2008.DVDRIP.XviD-ZEKTORM&amp;tr=udp%3A%2F%2Ftracker.openbittorrent.com%3A80&amp;tr=udp%3A%2F%2Fopen.demonii.com%3A1337&amp;tr=udp%3A%2F%2Ftracker.coppersurfer.tk%3A6969&amp;tr=udp%3A%2F%2Fexodus.desync.com%3A6969","seeders":6,"leechers":1,"uploader":"blowley","files":4,"time":1233929586,"description":"Title                            : Leonera\nYear                             : 2008\nGenre                            : Drama\niMDB URL                         : http://www.imdb.com/title/tt1022606/\nAwards                           : 7 wins &amp; 1 nomination\n\nComplete name                    : Leonera.2008.DVDRIP.XviD-ZEKTORM.avi\nFormat                           : AVI\nFile size                        : 701 MiB\nDuration                         : 1h 53mn\nOverall bit rate                 : 867 Kbps\nSubtitles                        : English, Spanish (Format: VobSub)\nSource                           : DVD NTSC\n\nVideo\nFormat                           : MPEG-4 Visual\nFormat profile                   : Streaming Video@L1\nCodec ID                         : DX50\nCodec ID/Hint                    : DivX 5\nDuration                         : 1h 53mn\nBit rate                         : 732 Kbps\nWidth                            : 720 pixels\nHeight                           : 320 pixels\nDisplay aspect ratio             : 2.25\nFrame rate                       : 23.976 fps\nResolution                       : 24 bits\nColorimetry                      : 4:2:0\nScan type                        : Progressive\nBits/(Pixel*Frame)               : 0.133\nStream size                      : 592 MiB (84%)\nWriting library                  : XviD\n\nAudio\nFormat                           : MPEG Audio\nFormat version                   : Version 1\nFormat profile                   : Layer 3\nCodec ID                         : 55\nCodec ID/Hint                    : MP3\nDuration                         : 1h 52mn\nBit rate mode                    : Constant\nBit rate                         : 128 Kbps\nMinimum bit rate                 : 128 Kbps\nChannel(s)                       : 2 channels\nSampling rate                    : 48.0 KHz\nResolution                       : 16 bits\nStream size                      : 103 MiB (15%)\nWriting library                  : LAME3.98r\nEncoding settings                : CBR\n","torrent":{"xt":"urn:btih:406ad36ba6a6b495b896dc357a78019091949ae0","amp;dn":"Leonera.2008.DVDRIP.XviD-ZEKTORM","amp;tr":["udp%3A%2F%2Ftracker.openbittorrent.com%3A80","udp%3A%2F%2Fopen.demonii.com%3A1337","udp%3A%2F%2Ftracker.coppersurfer.tk%3A6969","udp%3A%2F%2Fexodus.desync.com%3A6969"],"infoHash":"406ad36ba6a6b495b896dc357a78019091949ae0","infoHashBuffer":{"type":"Buffer","data":[64,106,211,107,166,166,180,149,184,150,220,53,122,120,1,144,145,148,154,224]},"announce":[],"urlList":[]}}